<svg width="161" height="46" viewBox="0 0 161 46" fill="none" xmlns="http://www.w3.org/2000/svg">
<g clip-path="url(#clip0_284_88)">
<path d="M9.65049 30.2552C7.9295 30.2881 6.21984 29.9701 4.6258 29.3206C3.22738 28.7494 2.0388 27.7614 1.22171 26.491C0.35836 25.0439 -0.0661241 23.3772 -0.000167589 21.6935C-0.0421956 20.2671 0.239223 18.8498 0.822989 17.5477C1.35037 16.438 2.14607 15.4773 3.13812 14.7524C4.18896 13.9988 5.36246 13.4331 6.60652 13.0804C8.00412 12.676 9.44177 12.4259 10.8938 12.3344C12.563 12.2115 13.8963 12.0614 14.8938 11.8842C15.6712 11.791 16.4173 11.5228 17.076 11.0996C17.2889 10.9473 17.4618 10.7457 17.5797 10.512C17.6977 10.2783 17.7573 10.0195 17.7534 9.75773V9.65054C17.7633 9.19564 17.6114 8.752 17.3247 8.39866C17.019 8.0418 16.6239 7.77253 16.18 7.61838C15.6135 7.41657 15.0148 7.32066 14.4136 7.33542C13.7936 7.32648 13.1769 7.42661 12.5916 7.63124C12.0831 7.79993 11.6258 8.09497 11.2625 8.48869C10.9054 8.9037 10.6709 9.40991 10.5851 9.95065L0.930171 9.2261C1.16125 7.49279 1.85427 5.85353 2.93662 4.48009C4.14163 3.00301 5.71519 1.87017 7.49828 1.19604C9.77246 0.341125 12.1907 -0.0650758 14.6194 -0.00011039C16.558 -0.0235012 18.4908 0.217373 20.3644 0.715864C21.9194 1.12622 23.3867 1.81629 24.6945 2.75232C25.8325 3.56214 26.7709 4.62077 27.4384 5.84773C28.0721 7.0527 28.3962 8.39635 28.3816 9.75773V29.775H18.2893V25.6292H18.105C17.5755 26.6572 16.8468 27.5695 15.9614 28.313C15.1297 28.9868 14.1721 29.4882 13.1446 29.7879C12.0084 30.1109 10.8316 30.2683 9.65049 30.2552ZM13.106 23.5285C13.8904 23.5321 14.666 23.3638 15.3783 23.0354C16.0798 22.7251 16.6896 22.2393 17.1489 21.6249C17.625 20.9747 17.8695 20.1838 17.8435 19.3784V16.9861L16.9517 17.2776C16.643 17.3848 16.3043 17.4834 15.9399 17.5734C15.5755 17.6635 15.2068 17.7406 14.8252 17.8135C14.4437 17.8864 14.0321 17.955 13.5905 18.0236C12.8887 18.1114 12.2072 18.3187 11.5755 18.6367C11.1026 18.8744 10.7005 19.2322 10.4093 19.6742C10.1501 20.0874 10.0161 20.5669 10.0235 21.0547C10.0091 21.5372 10.1488 22.0117 10.4222 22.4095C10.6936 22.7956 11.0722 23.0937 11.5112 23.2669C12.0212 23.4552 12.5626 23.544 13.106 23.5285Z" fill="#F48820"/>
<path d="M31.4253 45.7075V0.429562H42.0149V5.26561H42.2549C42.675 4.2732 43.2656 3.36198 43.9999 2.5732C44.7679 1.76096 45.6984 1.11966 46.7309 0.691086C47.9235 0.210569 49.2009 -0.0242055 50.4865 0.000835044C52.5101 -0.00805727 54.4953 0.553614 56.2143 1.62142C58.0891 2.83559 59.5769 4.56141 60.5016 6.59466C61.6106 8.82976 62.165 11.6651 62.165 15.1006C62.165 18.4333 61.642 21.22 60.5959 23.4608C59.7055 25.5219 58.2316 27.2774 56.3558 28.5112C54.5715 29.639 52.4986 30.2258 50.3879 30.2004C49.1412 30.2213 47.9028 29.9954 46.7437 29.5359C45.7335 29.1278 44.8165 28.5193 44.0479 27.7471C43.2794 26.9749 42.6753 26.0549 42.2721 25.0428H42.1135V45.7075H31.4253ZM46.6022 21.986C47.5105 22.016 48.4002 21.7245 49.1146 21.1628C49.8509 20.5354 50.3911 19.7094 50.6709 18.7834C51.049 17.5933 51.2286 16.3491 51.2025 15.1006C51.2305 13.8478 51.0509 12.5991 50.6709 11.405C50.3859 10.4814 49.8466 9.65675 49.1146 9.02555C48.402 8.45927 47.5121 8.16315 46.6022 8.18953C45.6857 8.1711 44.7903 8.46603 44.0642 9.02555C43.3011 9.6494 42.7266 10.4733 42.405 11.405C41.988 12.5914 41.789 13.8434 41.8176 15.1006C41.7915 16.3409 41.9905 17.5756 42.405 18.7448C42.7309 19.6779 43.3044 20.5049 44.0642 21.1371C44.787 21.7043 45.6836 22.0042 46.6022 21.986Z" fill="white"/>
<path d="M74.8387 13.4798V29.7714H64.1548V0.429319H74.2813L74.4657 8.06067H73.9083C74.5386 5.88638 75.7046 3.90512 77.2996 2.29857C78.8458 0.766584 80.9938 0.00059136 83.7433 0.00059136C85.6506 -0.0496795 87.5334 0.439221 89.1753 1.4111C90.6925 2.35419 91.9057 3.71471 92.6694 5.32967C93.5127 7.13903 93.9307 9.11738 93.8913 11.1132V29.7757H83.2417V13.3983C83.2417 11.9292 82.8773 10.7859 82.1485 9.9685C81.7575 9.54813 81.2784 9.21944 80.7455 9.00597C80.2125 8.7925 79.639 8.69955 79.0659 8.73377C78.2788 8.71241 77.5011 8.9098 76.8194 9.30398C76.1863 9.69222 75.6786 10.2549 75.3574 10.9246C74.9911 11.7253 74.8136 12.5996 74.8387 13.4798Z" fill="white"/>
<path d="M105.334 30.2556C103.617 30.2864 101.912 29.9684 100.322 29.3209C98.9237 28.7498 97.7351 27.7618 96.918 26.4913C96.0546 25.0443 95.6302 23.3776 95.6961 21.6939C95.6541 20.2675 95.9355 18.8502 96.5193 17.5481C97.0467 16.4384 97.8424 15.4777 98.8344 14.7528C99.8852 13.9992 101.059 13.4335 102.303 13.0808C103.694 12.6784 105.124 12.4282 106.569 12.3348C108.238 12.2119 109.573 12.0618 110.573 11.8846C111.351 11.7926 112.097 11.5242 112.755 11.1C112.968 10.9477 113.141 10.7461 113.259 10.5124C113.377 10.2787 113.436 10.0199 113.433 9.75812V9.65093C113.442 9.19603 113.291 8.75239 113.004 8.39905C112.698 8.04219 112.303 7.77292 111.859 7.61877C111.293 7.41668 110.694 7.32075 110.093 7.33581C109.473 7.32687 108.856 7.427 108.271 7.63163C107.762 7.80032 107.305 8.09536 106.942 8.48908C106.587 8.90554 106.353 9.41109 106.264 9.95104L96.6136 9.20934C96.8439 7.4833 97.5323 5.85044 98.6072 4.48048C99.8132 3.00444 101.386 1.87182 103.169 1.19643C105.448 0.339538 107.873 -0.066692 110.307 0.000281191C112.244 -0.0230933 114.176 0.217784 116.048 0.716256C117.604 1.12702 119.073 1.81704 120.382 2.75271C121.513 3.56454 122.444 4.62308 123.105 5.84812C123.738 7.05309 124.063 8.39674 124.048 9.75812V29.7754H113.973V25.6296H113.788C113.258 26.6568 112.529 27.5689 111.645 28.3134C110.811 28.9865 109.852 29.4877 108.824 29.7883C107.689 30.1112 106.514 30.2686 105.334 30.2556ZM108.789 23.5288C109.574 23.5325 110.349 23.3642 111.062 23.0358C111.762 22.7238 112.372 22.2383 112.832 21.6253C113.305 20.9737 113.548 20.1834 113.523 19.3788V16.9865L112.631 17.278C112.322 17.3852 111.983 17.4838 111.619 17.5738C111.255 17.6639 110.886 17.741 110.504 17.8139C110.123 17.8868 109.711 17.9554 109.27 18.024C108.571 18.1121 107.892 18.3195 107.263 18.6371C106.79 18.876 106.387 19.2335 106.093 19.6746C105.833 20.0878 105.699 20.5673 105.707 21.0551C105.693 21.5376 105.832 22.0121 106.106 22.4099C106.377 22.796 106.756 23.0941 107.195 23.2673C107.705 23.4548 108.246 23.5436 108.789 23.5288Z" fill="white"/>
<path d="M64.1157 45.7068V34.8086H66.2937L70.075 40.8108C70.2208 41.0423 70.3794 41.3081 70.5552 41.6125C70.731 41.9169 70.9068 42.2556 71.0954 42.6286C71.284 43.0016 71.4641 43.4046 71.6442 43.8376L71.4255 43.9491C71.3912 43.5589 71.3655 43.1516 71.3441 42.7272C71.3226 42.3027 71.3055 41.8997 71.2926 41.5139C71.2798 41.128 71.2926 40.8108 71.2926 40.5535V34.8086H73.2648V45.7068H71.0783L67.6527 40.3006C67.4598 39.9876 67.2669 39.6661 67.0739 39.3317C66.881 38.9973 66.6709 38.62 66.448 38.1955C66.2251 37.7711 65.9592 37.2695 65.6591 36.695L65.9335 36.635C65.9678 37.1666 65.9978 37.6682 66.0193 38.1441C66.0407 38.62 66.0579 39.0358 66.0707 39.4046C66.0836 39.7733 66.0707 40.0691 66.0707 40.292V45.7197L64.1157 45.7068Z" fill="white"/>
<path d="M78.8342 45.8738C78.1013 45.8941 77.3766 45.7148 76.7377 45.355C76.1538 45.0115 75.6829 44.5048 75.383 43.8973C75.0524 43.2153 74.8893 42.4642 74.9071 41.7065C74.8924 40.9523 75.0539 40.2051 75.3787 39.5243C75.6739 38.9148 76.1363 38.4018 76.712 38.0452C77.3174 37.6826 78.0129 37.4983 78.7185 37.5136C79.2113 37.5113 79.7005 37.597 80.1633 37.7665C80.6097 37.9345 81.0158 38.1945 81.3551 38.5297C81.715 38.894 81.9902 39.3331 82.1611 39.8158C82.3678 40.3961 82.4666 41.0093 82.4527 41.6251V42.1867H75.7688V40.9005H81.5095L80.652 41.2735C80.6609 40.8627 80.5865 40.4544 80.4334 40.0731C80.3005 39.7519 80.077 39.4764 79.7903 39.2799C79.4784 39.0855 79.1157 38.9885 78.7485 39.0013C78.3782 38.9909 78.013 39.0893 77.6981 39.2842C77.4039 39.4736 77.1715 39.7448 77.0293 40.0645C76.8711 40.4115 76.792 40.7893 76.7978 41.1706V42.0281C76.7853 42.4703 76.8717 42.9097 77.0507 43.3143C77.2079 43.6473 77.4619 43.9252 77.7795 44.1117C78.1164 44.2977 78.4967 44.3909 78.8814 44.3818C79.1424 44.3845 79.402 44.3424 79.6488 44.2575C79.8677 44.178 80.0677 44.0539 80.2362 43.893C80.402 43.7311 80.5282 43.533 80.6049 43.3143L82.3455 43.5886C82.229 44.0351 82.0019 44.4449 81.6853 44.7805C81.3493 45.1341 80.9373 45.4068 80.4805 45.5779C79.9561 45.7823 79.397 45.8828 78.8342 45.8738Z" fill="white"/>
<path d="M87.8417 37.634V39.1174H83.1729V37.634H87.8417ZM84.3776 35.6533H86.264V43.4261C86.2433 43.6507 86.3092 43.8746 86.4483 44.0521C86.5338 44.1257 86.6334 44.1811 86.741 44.215C86.8486 44.2489 86.962 44.2606 87.0743 44.2493C87.1942 44.2564 87.3145 44.2564 87.4344 44.2493C87.5802 44.2493 87.6959 44.2193 87.786 44.2064L88.0175 45.677C87.8184 45.7253 87.6165 45.7611 87.413 45.7841C87.1986 45.8056 86.9842 45.8142 86.7827 45.8142C86.1359 45.8595 85.4959 45.6589 84.9907 45.2525C84.7788 45.0409 84.6145 44.7865 84.5087 44.5063C84.403 44.2261 84.3583 43.9265 84.3776 43.6276V35.6533Z" fill="white"/>
<path d="M91.3186 45.7067L88.8877 37.6338H90.8899L91.6959 40.7764C91.8245 41.3037 91.9574 41.8739 92.1032 42.4913C92.2489 43.1086 92.3818 43.7775 92.5319 44.5063H92.2918C92.4247 43.7989 92.5619 43.1344 92.7205 42.517C92.8791 41.8996 93.0121 41.3166 93.1492 40.7764L93.9681 37.6338H95.7602L96.5662 40.7764C96.7034 41.308 96.8449 41.8825 96.9949 42.4913C97.145 43.1001 97.2822 43.7775 97.4237 44.4934H97.1793C97.3122 43.7817 97.4494 43.1172 97.5866 42.4956C97.7238 41.8739 97.861 41.2994 97.9939 40.7806L98.7956 37.6381H100.751L98.3197 45.711H96.399L95.4472 42.397C95.3486 42.0711 95.2543 41.7196 95.1643 41.3466C95.0742 40.9736 94.9885 40.5963 94.8985 40.2062C94.8084 39.816 94.7227 39.4473 94.6369 39.0829H94.9928C94.907 39.4473 94.817 39.8203 94.727 40.2062C94.6369 40.592 94.5469 40.9779 94.4569 41.3509C94.3668 41.7238 94.2768 42.0754 94.1825 42.397L93.2264 45.711L91.3186 45.7067Z" fill="white"/>
<path d="M105.299 45.8739C104.58 45.8908 103.869 45.7099 103.246 45.3508C102.664 45.0041 102.195 44.4964 101.895 43.8889C101.579 43.2011 101.415 42.453 101.415 41.6959C101.415 40.9389 101.579 40.1908 101.895 39.503C102.196 38.8951 102.665 38.3863 103.246 38.0367C103.876 37.6922 104.583 37.5117 105.301 37.5117C106.02 37.5117 106.727 37.6922 107.357 38.0367C107.937 38.3874 108.406 38.896 108.708 39.503C109.024 40.1908 109.188 40.9389 109.188 41.6959C109.188 42.453 109.024 43.2011 108.708 43.8889C108.407 44.4954 107.938 45.0028 107.357 45.3508C106.732 45.7098 106.02 45.8907 105.299 45.8739ZM105.299 44.3304C105.691 44.3426 106.076 44.2201 106.388 43.9832C106.69 43.7349 106.919 43.4087 107.049 43.04C107.346 42.1657 107.346 41.2176 107.049 40.3433C106.92 39.9748 106.692 39.6495 106.388 39.4044C106.076 39.1675 105.691 39.0449 105.299 39.0571C104.908 39.0434 104.525 39.1662 104.215 39.4044C103.911 39.6485 103.683 39.9742 103.559 40.3433C103.261 41.2176 103.261 42.1657 103.559 43.04C103.685 43.4096 103.912 43.7365 104.215 43.9832C104.525 44.2213 104.908 44.3441 105.299 44.3304Z" fill="white"/>
<path d="M110.762 45.7066V37.6337H112.588V38.9799H112.661C112.78 38.547 113.043 38.1676 113.407 37.9038C113.772 37.6513 114.207 37.5208 114.65 37.5308H115.006C115.13 37.5308 115.233 37.5308 115.323 37.5651V39.28C115.199 39.2525 115.073 39.2324 114.946 39.22C114.775 39.1993 114.604 39.1893 114.432 39.19C114.114 39.1855 113.8 39.2606 113.518 39.4086C113.254 39.5529 113.033 39.7662 112.88 40.026C112.719 40.3156 112.639 40.6427 112.648 40.9735V45.6895L110.762 45.7066Z" fill="white"/>
<path d="M116.742 45.7068V34.8086H118.629V45.7068H116.742ZM118.457 43.1688V40.8922H118.757L121.72 37.6339H123.949L120.335 41.6125H119.949L118.457 43.1688ZM121.844 45.7068L119.186 42.0155L120.472 40.6822L124.142 45.694L121.844 45.7068Z" fill="white"/>
<path d="M146.11 35.3186C148.406 35.3163 150.606 34.4037 152.23 32.781C153.853 31.1583 154.767 28.958 154.771 26.6626V8.65601C154.771 6.36029 153.859 4.1586 152.235 2.53529C150.612 0.911969 148.41 0 146.115 0C143.819 0 141.617 0.911969 139.994 2.53529C138.37 4.1586 137.458 6.36029 137.458 8.65601V26.6626C137.462 28.9565 138.374 31.1555 139.996 32.778C141.618 34.4005 143.816 35.314 146.11 35.3186ZM140.224 8.65601C140.224 7.88299 140.376 7.11754 140.672 6.40337C140.968 5.68919 141.401 5.04028 141.948 4.49367C142.494 3.94707 143.143 3.51348 143.858 3.21766C144.572 2.92184 145.337 2.76958 146.11 2.76958C146.883 2.76958 147.649 2.92184 148.363 3.21766C149.077 3.51348 149.726 3.94707 150.273 4.49367C150.819 5.04028 151.253 5.68919 151.549 6.40337C151.844 7.11754 151.997 7.88299 151.997 8.65601V26.6626C151.997 27.4356 151.844 28.201 151.549 28.9152C151.253 29.6294 150.819 30.2783 150.273 30.8249C149.726 31.3715 149.077 31.8051 148.363 32.1009C147.649 32.3967 146.883 32.549 146.11 32.549C145.337 32.549 144.572 32.3967 143.858 32.1009C143.143 31.8051 142.494 31.3715 141.948 30.8249C141.401 30.2783 140.968 29.6294 140.672 28.9152C140.376 28.201 140.224 27.4356 140.224 26.6626V8.65601Z" fill="#F48820"/>
<path d="M142.303 14.5428C142.394 14.5428 142.484 14.5248 142.568 14.4898C142.652 14.4549 142.728 14.4036 142.793 14.3391C142.857 14.2745 142.907 14.1979 142.942 14.1137C142.976 14.0294 142.994 13.9392 142.993 13.8482V7.95321C142.993 6.35835 144.442 6.23831 144.97 6.23831H145.506C145.68 6.22459 145.842 6.14569 145.961 6.01735C146.08 5.88902 146.146 5.72067 146.146 5.54591C146.146 5.37115 146.08 5.20281 145.961 5.07447C145.842 4.94613 145.68 4.86724 145.506 4.85352H144.97C142.805 4.85352 141.608 6.10111 141.608 7.9575V13.8482C141.608 13.9396 141.625 14.0302 141.66 14.1147C141.695 14.1992 141.746 14.276 141.811 14.3406C141.875 14.4052 141.952 14.4563 142.036 14.491C142.121 14.5257 142.212 14.5433 142.303 14.5428Z" fill="#F48820"/>
<path d="M142.993 16.6217V15.9271C142.979 15.7529 142.901 15.5902 142.772 15.4716C142.644 15.353 142.476 15.2871 142.301 15.2871C142.126 15.2871 141.958 15.353 141.829 15.4716C141.701 15.5902 141.622 15.7529 141.608 15.9271V16.6217C141.622 16.7959 141.701 16.9585 141.829 17.0772C141.958 17.1958 142.126 17.2617 142.301 17.2617C142.476 17.2617 142.644 17.1958 142.772 17.0772C142.901 16.9585 142.979 16.7959 142.993 16.6217Z" fill="#F48820"/>
<path d="M159.615 23.5459C159.433 23.5453 159.252 23.5808 159.084 23.6502C158.916 23.7196 158.763 23.8215 158.634 23.9502C158.506 24.0789 158.404 24.2318 158.334 24.4001C158.265 24.5684 158.229 24.7487 158.23 24.9307V25.7238C158.23 32.4206 152.567 38.0798 146.174 38.0798H146.028C139.477 38.0798 133.99 32.3048 133.99 25.7238V24.9307C133.99 24.7488 133.954 24.5688 133.884 24.4008C133.815 24.2327 133.713 24.0801 133.584 23.9515C133.456 23.8229 133.303 23.7209 133.135 23.6513C132.967 23.5817 132.787 23.5459 132.605 23.5459C132.423 23.5459 132.243 23.5817 132.075 23.6513C131.907 23.7209 131.754 23.8229 131.626 23.9515C131.497 24.0801 131.395 24.2327 131.326 24.4008C131.256 24.5688 131.22 24.7488 131.22 24.9307V25.7238C131.22 33.3638 136.987 39.8976 144.378 40.7293V42.9029H139.962C139.607 42.9227 139.274 43.0774 139.03 43.3353C138.786 43.5933 138.65 43.9348 138.65 44.2899C138.65 44.6449 138.786 44.9865 139.03 45.2444C139.274 45.5024 139.607 45.6571 139.962 45.6768H151.735C151.923 45.6873 152.112 45.6592 152.29 45.5943C152.467 45.5293 152.629 45.4288 152.767 45.299C152.904 45.1692 153.013 45.0127 153.088 44.8392C153.162 44.6657 153.201 44.4788 153.201 44.2899C153.201 44.101 153.162 43.914 153.088 43.7405C153.013 43.567 152.904 43.4106 152.767 43.2808C152.629 43.1509 152.467 43.0505 152.29 42.9855C152.112 42.9206 151.923 42.8925 151.735 42.9029H147.147V40.8193C154.77 40.3006 161 33.7325 161 25.7238V24.9307C161 24.5634 160.854 24.2112 160.594 23.9515C160.334 23.6918 159.982 23.5459 159.615 23.5459Z" fill="#F48820"/>
</g>
<defs>
<clipPath id="clip0_284_88">
<rect width="161" height="45.8738" fill="white"/>
</clipPath>
</defs>
</svg>
