<svg width="161" height="43" viewBox="0 0 161 43" fill="none" xmlns="http://www.w3.org/2000/svg">
<g clip-path="url(#clip0_288_64)">
<path d="M8.86898 27.8042C7.28744 27.8344 5.7163 27.5422 4.25142 26.9453C2.96631 26.4204 1.87403 25.5125 1.12314 24.345C0.329746 23.0151 -0.0603437 21.4835 0.000268671 19.9362C-0.038354 18.6254 0.220263 17.3229 0.756729 16.1263C1.24138 15.1065 1.97261 14.2236 2.88427 13.5575C3.84997 12.865 4.92839 12.3451 6.07165 12.021C7.35601 11.6494 8.67717 11.4195 10.0115 11.3354C11.5455 11.2225 12.7708 11.0846 13.6875 10.9217C14.4018 10.8361 15.0875 10.5895 15.6929 10.2007C15.8885 10.0607 16.0474 9.87543 16.1558 9.66066C16.2642 9.4459 16.3189 9.20808 16.3154 8.96753V8.86903C16.3245 8.45099 16.1849 8.04329 15.9214 7.71858C15.6404 7.39064 15.2774 7.14319 14.8694 7.00152C14.3489 6.81607 13.7986 6.72792 13.2462 6.74149C12.6764 6.73328 12.1097 6.8253 11.5717 7.01334C11.1045 7.16837 10.6842 7.4395 10.3504 7.80132C10.0222 8.1827 9.80667 8.6479 9.72788 9.14482L0.855227 8.47898C1.06759 6.88611 1.70446 5.37967 2.6991 4.11751C3.80648 2.76011 5.25254 1.71906 6.89115 1.09955C8.98107 0.313908 11.2034 -0.0593804 13.4353 0.000321235C15.2169 -0.0211744 16.993 0.200183 18.7148 0.658284C20.1438 1.03539 21.4922 1.66955 22.6941 2.52974C23.7399 3.27394 24.6023 4.2468 25.2156 5.37434C25.798 6.48168 26.0959 7.71646 26.0824 8.96753V27.3629H16.8079V23.553H16.6385C16.1519 24.4977 15.4823 25.3361 14.6685 26.0194C13.9042 26.6386 13.0243 27.0993 12.08 27.3747C11.0359 27.6716 9.9544 27.8162 8.86898 27.8042ZM12.0445 21.6225C12.7653 21.6258 13.4781 21.4712 14.1327 21.1694C14.7774 20.8842 15.3378 20.4378 15.7599 19.8732C16.1973 19.2757 16.4221 18.5488 16.3981 17.8087V15.6102L15.5786 15.8781C15.295 15.9766 14.9837 16.0672 14.6488 16.15C14.3139 16.2327 13.9751 16.3036 13.6244 16.3706C13.2738 16.4376 12.8956 16.5006 12.4897 16.5637C11.8448 16.6443 11.2185 16.8349 10.638 17.1271C10.2035 17.3456 9.83392 17.6743 9.56634 18.0805C9.32808 18.4603 9.20492 18.9009 9.21175 19.3492C9.19855 19.7925 9.32689 20.2286 9.57816 20.5942C9.82753 20.949 10.1755 21.223 10.5789 21.3821C11.0476 21.5552 11.5451 21.6368 12.0445 21.6225Z" fill="#F48820"/>
<path d="M28.8799 42.003V0.393702H38.6114V4.83791H38.8321C39.2181 3.92591 39.7608 3.08852 40.4356 2.36365C41.1414 1.61723 41.9965 1.02789 42.9453 0.634035C44.0413 0.192452 45.2153 -0.0232999 46.3967 -0.000288304C48.2563 -0.00846012 50.0807 0.507701 51.6604 1.48899C53.3833 2.60478 54.7505 4.19077 55.6003 6.05928C56.6194 8.11328 57.129 10.7189 57.129 13.876C57.129 16.9386 56.6483 19.4996 55.6869 21.5588C54.8687 23.4529 53.5142 25.0662 51.7904 26.2C50.1507 27.2365 48.2457 27.7757 46.3061 27.7524C45.1604 27.7715 44.0223 27.564 42.9571 27.1417C42.0288 26.7667 41.186 26.2075 40.4798 25.4979C39.7735 24.7882 39.2183 23.9428 38.8478 23.0127H38.702V42.003H28.8799ZM42.8271 20.2035C43.6618 20.2311 44.4794 19.9632 45.1359 19.4471C45.8125 18.8705 46.309 18.1114 46.5661 17.2604C46.9136 16.1667 47.0787 15.0233 47.0546 13.876C47.0804 12.7248 46.9153 11.5772 46.5661 10.4798C46.3042 9.63109 45.8086 8.87326 45.1359 8.2932C44.481 7.7728 43.6632 7.50068 42.8271 7.52492C41.9848 7.50798 41.162 7.77901 40.4947 8.2932C39.7934 8.8665 39.2655 9.62361 38.97 10.4798C38.5867 11.5701 38.4038 12.7207 38.4302 13.876C38.4062 15.0158 38.5891 16.1505 38.97 17.2249C39.2694 18.0825 39.7965 18.8424 40.4947 19.4234C41.1589 19.9447 41.9829 20.2203 42.8271 20.2035Z" fill="#282828"/>
<path d="M68.7753 12.3883V27.3599H58.957V0.395272H68.2631L68.4325 7.40829H67.9203C68.4995 5.41017 69.5711 3.58944 71.0368 2.11307C72.4578 0.705211 74.4316 0.00128263 76.9584 0.00128263C78.7112 -0.044915 80.4414 0.404372 81.9503 1.29751C83.3446 2.16418 84.4594 3.41447 85.1613 4.89858C85.9362 6.56133 86.3203 8.37939 86.2842 10.2135V27.3639H76.4975V12.3135C76.4975 10.9634 76.1626 9.91275 75.4928 9.16155C75.1335 8.77523 74.6932 8.47317 74.2034 8.277C73.7137 8.08083 73.1866 7.99541 72.66 8.02686C71.9366 8.00723 71.222 8.18862 70.5955 8.55086C70.0137 8.90765 69.5472 9.42476 69.252 10.0401C68.9153 10.776 68.7522 11.5794 68.7753 12.3883Z" fill="#282828"/>
<path d="M96.7995 27.8045C95.222 27.8329 93.6551 27.5407 92.1938 26.9456C90.9087 26.4208 89.8164 25.5129 89.0655 24.3453C88.2721 23.0155 87.882 21.4839 87.9427 19.9366C87.904 18.6258 88.1626 17.3233 88.6991 16.1267C89.1838 15.1069 89.915 14.224 90.8267 13.5579C91.7923 12.8654 92.8708 12.3455 94.014 12.0213C95.2921 11.6515 96.6065 11.4217 97.9342 11.3358C99.4682 11.2228 100.695 11.0849 101.614 10.9221C102.329 10.8375 103.015 10.5909 103.62 10.2011C103.815 10.0611 103.974 9.87579 104.082 9.66102C104.191 9.44626 104.246 9.20843 104.242 8.96789V8.86939C104.251 8.45135 104.111 8.04365 103.848 7.71894C103.567 7.391 103.204 7.14355 102.796 7.00188C102.276 6.81616 101.725 6.72801 101.173 6.74185C100.603 6.73364 100.036 6.82565 99.4984 7.0137C99.0311 7.16872 98.6109 7.43986 98.277 7.80168C97.9509 8.1844 97.7357 8.64898 97.6545 9.14518L88.7858 8.46358C88.9974 6.87739 89.63 5.37684 90.6178 4.11787C91.7261 2.76143 93.1719 1.72057 94.8099 1.09991C96.9048 0.31245 99.1327 -0.0608656 101.37 0.000681089C103.15 -0.0207995 104.925 0.20056 106.645 0.658644C108.075 1.03613 109.425 1.67024 110.629 2.5301C111.668 3.27615 112.523 4.24892 113.13 5.3747C113.713 6.48204 114.011 7.71682 113.997 8.96789V27.3633H104.738V23.5534H104.569C104.081 24.4974 103.412 25.3356 102.599 26.0198C101.833 26.6382 100.952 27.0989 100.007 27.3751C98.9638 27.6718 97.8837 27.8165 96.7995 27.8045ZM99.9751 21.6228C100.696 21.6262 101.409 21.4715 102.063 21.1698C102.707 20.883 103.267 20.4369 103.69 19.8735C104.125 19.2747 104.348 18.5485 104.325 17.809V15.6106L103.505 15.8785C103.222 15.977 102.91 16.0676 102.575 16.1503C102.241 16.2331 101.902 16.304 101.551 16.371C101.2 16.4379 100.822 16.501 100.416 16.564C99.774 16.645 99.1504 16.8356 98.5725 17.1274C98.1377 17.347 97.7671 17.6755 97.4969 18.0809C97.2586 18.4606 97.1355 18.9013 97.1423 19.3495C97.1291 19.7929 97.2574 20.229 97.5087 20.5945C97.7581 20.9494 98.106 21.2233 98.5095 21.3825C98.9783 21.5548 99.4757 21.6364 99.9751 21.6228Z" fill="#282828"/>
<path d="M58.9219 42.0035V31.9883H60.9233L64.3983 37.5041C64.5323 37.7169 64.6781 37.9612 64.8396 38.2409C65.0011 38.5206 65.1627 38.8319 65.336 39.1747C65.5094 39.5174 65.6749 39.8878 65.8403 40.2857L65.6394 40.3881C65.6079 40.0296 65.5842 39.6553 65.5645 39.2653C65.5448 38.8752 65.5291 38.5049 65.5173 38.1503C65.5054 37.7957 65.5173 37.5041 65.5173 37.2677V31.9883H67.3296V42.0035H65.3203L62.1723 37.0353C61.995 36.7477 61.8177 36.4522 61.6404 36.1449C61.4631 35.8376 61.2701 35.4908 61.0652 35.1008C60.8603 34.7107 60.616 34.2498 60.3402 33.7218L60.5924 33.6667C60.6239 34.1552 60.6515 34.6162 60.6712 35.0535C60.6909 35.4909 60.7066 35.873 60.7185 36.2119C60.7303 36.5507 60.7185 36.8225 60.7185 37.0274V42.0153L58.9219 42.0035Z" fill="#282828"/>
<path d="M72.4471 42.1582C71.7735 42.177 71.1075 42.0122 70.5205 41.6815C69.9838 41.3658 69.5511 40.9002 69.2754 40.3419C68.9717 39.7151 68.8218 39.025 68.8381 38.3286C68.8246 37.6356 68.973 36.9489 69.2715 36.3232C69.5428 35.7631 69.9678 35.2917 70.4968 34.964C71.0532 34.6307 71.6923 34.4614 72.3407 34.4754C72.7936 34.4734 73.2432 34.5521 73.6684 34.7079C74.0787 34.8622 74.4519 35.1012 74.7637 35.4092C75.0945 35.744 75.3474 36.1475 75.5044 36.5911C75.6944 37.1244 75.7852 37.6879 75.7723 38.2538V38.7699H69.63V37.5879H74.9056L74.1176 37.9307C74.1257 37.5532 74.0574 37.1779 73.9166 36.8275C73.7945 36.5324 73.5892 36.2792 73.3257 36.0987C73.0391 35.92 72.7058 35.8308 72.3683 35.8426C72.028 35.833 71.6924 35.9234 71.403 36.1026C71.1327 36.2767 70.919 36.5259 70.7884 36.8197C70.643 37.1385 70.5703 37.4857 70.5756 37.8361V38.6241C70.5641 39.0305 70.6436 39.4343 70.8081 39.8061C70.9525 40.1122 71.186 40.3676 71.4778 40.5389C71.7874 40.7098 72.1369 40.7955 72.4904 40.7871C72.7303 40.7896 72.9688 40.751 73.1956 40.6729C73.3968 40.5999 73.5806 40.4858 73.7354 40.338C73.8878 40.1892 74.0038 40.0071 74.0742 39.8061L75.6738 40.0583C75.5667 40.4685 75.3581 40.8452 75.0671 41.1535C74.7583 41.4785 74.3798 41.7291 73.96 41.8864C73.4781 42.0742 72.9642 42.1665 72.4471 42.1582Z" fill="#282828"/>
<path d="M80.7251 34.5859V35.9491H76.4346V34.5859H80.7251ZM77.5417 32.7656H79.2752V39.9087C79.2562 40.115 79.3168 40.3208 79.4447 40.4839C79.5232 40.5515 79.6147 40.6025 79.7136 40.6336C79.8125 40.6648 79.9167 40.6755 80.0199 40.6651C80.1301 40.6716 80.2406 40.6716 80.3508 40.6651C80.4848 40.6651 80.5912 40.6375 80.6739 40.6257L80.8867 41.9771C80.7037 42.0215 80.5182 42.0544 80.3311 42.0756C80.1341 42.0953 79.9371 42.1032 79.752 42.1032C79.1576 42.1448 78.5694 41.9605 78.1051 41.5871C77.9104 41.3926 77.7594 41.1588 77.6622 40.9013C77.5651 40.6438 77.524 40.3685 77.5417 40.0938V32.7656Z" fill="#282828"/>
<path d="M83.9204 42.0048L81.6865 34.5859H83.5265L84.2672 37.4739C84.3854 37.9585 84.5075 38.4825 84.6414 39.0498C84.7754 39.6172 84.8975 40.2318 85.0354 40.9016H84.8148C84.9369 40.2515 85.063 39.6408 85.2088 39.0735C85.3546 38.5061 85.4767 37.9703 85.6028 37.4739L86.3553 34.5859H88.0022L88.7429 37.4739C88.869 37.9624 88.999 38.4904 89.1369 39.0498C89.2748 39.6093 89.4008 40.2318 89.5309 40.8898H89.3063C89.4284 40.2358 89.5545 39.6251 89.6806 39.0538C89.8067 38.4825 89.9327 37.9546 90.0549 37.4778L90.7916 34.5899H92.5882L90.3543 42.0087H88.5892L87.7146 38.9632C87.624 38.6637 87.5373 38.3407 87.4545 37.9979C87.3718 37.6551 87.293 37.3084 87.2103 36.9499C87.1275 36.5913 87.0487 36.2525 86.9699 35.9176H87.2969C87.2181 36.2525 87.1354 36.5953 87.0527 36.9499C86.9699 37.3045 86.8872 37.6591 86.8045 38.0018C86.7217 38.3446 86.639 38.6677 86.5523 38.9632L85.6737 42.0087L83.9204 42.0048Z" fill="#282828"/>
<path d="M96.7678 42.1573C96.1066 42.1728 95.4538 42.0065 94.8806 41.6766C94.3458 41.358 93.9148 40.8914 93.6395 40.3331C93.3488 39.701 93.1982 39.0135 93.1982 38.3178C93.1982 37.6221 93.3488 36.9346 93.6395 36.3026C93.9158 35.744 94.3465 35.2763 94.8806 34.9551C95.4599 34.6386 96.1096 34.4727 96.7698 34.4727C97.43 34.4727 98.0796 34.6386 98.6589 34.9551C99.1921 35.2774 99.6226 35.7447 99.9 36.3026C100.191 36.9346 100.341 37.6221 100.341 38.3178C100.341 39.0135 100.191 39.701 99.9 40.3331C99.6234 40.8905 99.1927 41.3568 98.6589 41.6766C98.0843 42.0065 97.4302 42.1727 96.7678 42.1573ZM96.7678 40.7389C97.128 40.7501 97.4813 40.6374 97.7685 40.4198C98.046 40.1916 98.2558 39.8918 98.3753 39.553C98.6485 38.7495 98.6485 37.8783 98.3753 37.0748C98.2576 36.7361 98.0474 36.4372 97.7685 36.212C97.4813 35.9943 97.128 35.8816 96.7678 35.8928C96.4086 35.8803 96.0561 35.9931 95.771 36.212C95.492 36.4363 95.2828 36.7356 95.1682 37.0748C94.895 37.8783 94.895 38.7495 95.1682 39.553C95.2839 39.8927 95.4928 40.193 95.771 40.4198C96.0561 40.6386 96.4086 40.7514 96.7678 40.7389Z" fill="#282828"/>
<path d="M101.787 42.0041V34.5853H103.465V35.8224H103.532C103.642 35.4246 103.884 35.0759 104.218 34.8335C104.553 34.6015 104.953 34.4815 105.361 34.4907H105.688C105.802 34.4907 105.896 34.4907 105.979 34.5222V36.0982C105.865 36.0729 105.749 36.0545 105.632 36.043C105.476 36.0241 105.318 36.0148 105.16 36.0155C104.868 36.0113 104.579 36.0804 104.32 36.2164C104.077 36.349 103.874 36.545 103.733 36.7837C103.586 37.0498 103.513 37.3505 103.521 37.6545V41.9884L101.787 42.0041Z" fill="#282828"/>
<path d="M107.283 42.0035V31.9883H109.017V42.0035H107.283ZM108.859 39.6711V37.579H109.135L111.857 34.5847H113.906L110.585 38.2409H110.23L108.859 39.6711ZM111.972 42.0035L109.529 38.6112L110.711 37.3859L114.083 41.9917L111.972 42.0035Z" fill="#282828"/>
<path d="M134.272 32.4569C136.381 32.4548 138.404 31.6162 139.896 30.125C141.388 28.6337 142.227 26.6117 142.231 24.5022V7.95465C142.231 5.84495 141.393 3.82165 139.901 2.32986C138.409 0.838077 136.386 0 134.276 0C132.166 0 130.143 0.838077 128.651 2.32986C127.159 3.82165 126.321 5.84495 126.321 7.95465V24.5022C126.324 26.6103 127.163 28.6312 128.653 30.1222C130.143 31.6132 132.164 32.4527 134.272 32.4569ZM128.863 7.95465C128.863 7.24427 129.002 6.54084 129.274 5.88454C129.546 5.22823 129.945 4.63189 130.447 4.12957C130.949 3.62726 131.546 3.2288 132.202 2.95695C132.858 2.68509 133.562 2.54517 134.272 2.54517C134.982 2.54517 135.686 2.68509 136.342 2.95695C136.998 3.2288 137.595 3.62726 138.097 4.12957C138.599 4.63189 138.998 5.22823 139.27 5.88454C139.542 6.54084 139.681 7.24427 139.681 7.95465V24.5022C139.681 25.2126 139.542 25.916 139.27 26.5723C138.998 27.2287 138.599 27.825 138.097 28.3273C137.595 28.8296 136.998 29.2281 136.342 29.4999C135.686 29.7718 134.982 29.9117 134.272 29.9117C133.562 29.9117 132.858 29.7718 132.202 29.4999C131.546 29.2281 130.949 28.8296 130.447 28.3273C129.945 27.825 129.546 27.2287 129.274 26.5723C129.002 25.916 128.863 25.2126 128.863 24.5022V7.95465Z" fill="#F48820"/>
<path d="M130.773 13.3651C130.857 13.3651 130.939 13.3486 131.017 13.3164C131.094 13.2843 131.164 13.2372 131.223 13.1779C131.282 13.1186 131.329 13.0482 131.36 12.9708C131.392 12.8934 131.408 12.8105 131.407 12.7268V7.30948C131.407 5.84384 132.739 5.73352 133.224 5.73352H133.716C133.876 5.72092 134.026 5.64841 134.135 5.53047C134.244 5.41254 134.304 5.25784 134.304 5.09723C134.304 4.93663 134.244 4.78193 134.135 4.66399C134.026 4.54605 133.876 4.47355 133.716 4.46094H133.224C131.234 4.46094 130.135 5.60745 130.135 7.31342V12.7268C130.134 12.8108 130.15 12.894 130.182 12.9717C130.214 13.0494 130.261 13.12 130.321 13.1793C130.38 13.2387 130.451 13.2857 130.528 13.3176C130.606 13.3495 130.689 13.3656 130.773 13.3651Z" fill="#F48820"/>
<path d="M131.407 15.2752V14.637C131.395 14.4769 131.322 14.3274 131.204 14.2184C131.086 14.1094 130.932 14.0488 130.771 14.0488C130.61 14.0488 130.456 14.1094 130.338 14.2184C130.22 14.3274 130.147 14.4769 130.135 14.637V15.2752C130.147 15.4354 130.22 15.5848 130.338 15.6938C130.456 15.8029 130.61 15.8634 130.771 15.8634C130.932 15.8634 131.086 15.8029 131.204 15.6938C131.322 15.5848 131.395 15.4354 131.407 15.2752Z" fill="#F48820"/>
<path d="M146.683 21.6387C146.516 21.6382 146.35 21.6707 146.195 21.7345C146.041 21.7983 145.9 21.892 145.782 22.0103C145.664 22.1285 145.57 22.269 145.506 22.4237C145.442 22.5783 145.41 22.744 145.41 22.9113V23.6401C145.41 29.7943 140.206 34.9949 134.331 34.9949H134.197C128.177 34.9949 123.134 29.6879 123.134 23.6401V22.9113C123.134 22.7441 123.101 22.5787 123.037 22.4243C122.973 22.2699 122.879 22.1296 122.761 22.0114C122.643 21.8932 122.503 21.7995 122.348 21.7355C122.194 21.6716 122.029 21.6387 121.861 21.6387C121.694 21.6387 121.529 21.6716 121.374 21.7355C121.22 21.7995 121.08 21.8932 120.962 22.0114C120.843 22.1296 120.75 22.2699 120.686 22.4243C120.622 22.5787 120.589 22.7441 120.589 22.9113V23.6401C120.589 30.661 125.888 36.6654 132.68 37.4298V39.4273H128.622C128.297 39.4454 127.99 39.5876 127.766 39.8247C127.542 40.0617 127.417 40.3756 127.417 40.7019C127.417 41.0282 127.542 41.3421 127.766 41.5791C127.99 41.8161 128.297 41.9583 128.622 41.9764H139.441C139.615 41.9861 139.788 41.9603 139.951 41.9006C140.114 41.8409 140.263 41.7485 140.389 41.6292C140.516 41.5099 140.616 41.3662 140.685 41.2067C140.753 41.0473 140.789 40.8755 140.789 40.7019C140.789 40.5283 140.753 40.3565 140.685 40.197C140.616 40.0376 140.516 39.8938 140.389 39.7745C140.263 39.6552 140.114 39.5629 139.951 39.5032C139.788 39.4435 139.615 39.4177 139.441 39.4273H135.226V37.5125C142.231 37.0358 147.955 30.9999 147.955 23.6401V22.9113C147.955 22.5738 147.821 22.2501 147.583 22.0114C147.344 21.7728 147.02 21.6387 146.683 21.6387Z" fill="#F48820"/>
<path d="M152.12 2.58984C154.831 4.83953 156.324 7.82597 156.324 11.0055C156.324 14.185 154.838 17.1714 152.12 19.4211L150.087 17.7309C154.563 14.0195 154.563 7.98356 150.087 4.27218L152.12 2.58984Z" fill="#F48820"/>
<path d="M155.232 0C157.03 1.3851 158.508 3.14147 159.566 5.14945C160.513 6.95567 161.008 8.96468 161.008 11.0041C161.008 13.0436 160.513 15.0526 159.566 16.8588C158.508 18.8668 157.03 20.6232 155.232 22.0083L153.207 20.4087C159.767 15.2198 159.767 6.7845 153.207 1.5996L155.232 0Z" fill="#F48820"/>
</g>
<defs>
<clipPath id="clip0_288_64">
<rect width="161" height="42.1569" fill="white"/>
</clipPath>
</defs>
</svg>
